<mxfile host="app.diagrams.net" agent="Mozilla/5.0 (Windows NT 10.0; Win64; x64) AppleWebKit/537.36 (KHTML, like Gecko) Chrome/127.0.0.0 Safari/537.36 Edg/127.0.0.0" version="24.7.7">
  <diagram name="Page-1" id="JhIU2XlBXUx1_R46eb7L">
    <mxGraphModel dx="1226" dy="676" grid="1" gridSize="10" guides="1" tooltips="1" connect="1" arrows="1" fold="1" page="1" pageScale="1" pageWidth="850" pageHeight="1100" math="0" shadow="0">
      <root>
        <mxCell id="0" />
        <mxCell id="1" parent="0" />
        <mxCell id="hnzndyQ2c-kpyE6tr3fe-2" value="المستخدم" style="shape=umlActor;verticalLabelPosition=bottom;verticalAlign=top;html=1;outlineConnect=0;" parent="1" vertex="1">
          <mxGeometry x="246" y="910" width="30" height="60" as="geometry" />
        </mxCell>
        <mxCell id="hnzndyQ2c-kpyE6tr3fe-5" value="تسجيل الدخول" style="ellipse;whiteSpace=wrap;html=1;" parent="1" vertex="1">
          <mxGeometry x="710" y="670" width="120" height="80" as="geometry" />
        </mxCell>
        <mxCell id="hnzndyQ2c-kpyE6tr3fe-19" value="BPMN&amp;nbsp;رسم مخطط&amp;nbsp;" style="ellipse;whiteSpace=wrap;html=1;" parent="1" vertex="1">
          <mxGeometry x="420" y="891" width="120" height="80" as="geometry" />
        </mxCell>
        <mxCell id="hnzndyQ2c-kpyE6tr3fe-20" style="rounded=0;orthogonalLoop=1;jettySize=auto;html=1;entryX=0;entryY=0.5;entryDx=0;entryDy=0;exitX=1;exitY=0.3333333333333333;exitDx=0;exitDy=0;exitPerimeter=0;" parent="1" source="hnzndyQ2c-kpyE6tr3fe-2" target="hnzndyQ2c-kpyE6tr3fe-19" edge="1">
          <mxGeometry relative="1" as="geometry">
            <mxPoint x="200" y="530" as="sourcePoint" />
            <mxPoint x="410" y="936" as="targetPoint" />
          </mxGeometry>
        </mxCell>
        <mxCell id="hnzndyQ2c-kpyE6tr3fe-21" style="rounded=0;orthogonalLoop=1;jettySize=auto;html=1;dashed=1;exitX=1.006;exitY=0.4;exitDx=0;exitDy=0;entryX=0;entryY=1;entryDx=0;entryDy=0;exitPerimeter=0;" parent="1" source="hnzndyQ2c-kpyE6tr3fe-19" target="hnzndyQ2c-kpyE6tr3fe-5" edge="1">
          <mxGeometry relative="1" as="geometry">
            <mxPoint x="600" y="891" as="sourcePoint" />
            <mxPoint x="823" y="650" as="targetPoint" />
          </mxGeometry>
        </mxCell>
        <mxCell id="hnzndyQ2c-kpyE6tr3fe-22" value="&lt;b&gt;&amp;lt;include&amp;gt;&lt;/b&gt;" style="text;html=1;align=center;verticalAlign=middle;resizable=0;points=[];autosize=1;strokeColor=none;fillColor=none;rotation=-48;" parent="1" vertex="1">
          <mxGeometry x="570" y="820" width="80" height="30" as="geometry" />
        </mxCell>
        <mxCell id="hnzndyQ2c-kpyE6tr3fe-23" value="BPMN توليد مخطط&amp;nbsp;" style="ellipse;whiteSpace=wrap;html=1;" parent="1" vertex="1">
          <mxGeometry x="700" y="891" width="120" height="80" as="geometry" />
        </mxCell>
        <mxCell id="hnzndyQ2c-kpyE6tr3fe-24" style="rounded=0;orthogonalLoop=1;jettySize=auto;html=1;dashed=1;exitX=0;exitY=0.5;exitDx=0;exitDy=0;entryX=1;entryY=0.5;entryDx=0;entryDy=0;" parent="1" source="hnzndyQ2c-kpyE6tr3fe-23" target="hnzndyQ2c-kpyE6tr3fe-19" edge="1">
          <mxGeometry relative="1" as="geometry">
            <mxPoint x="550" y="941" as="sourcePoint" />
            <mxPoint x="540" y="930" as="targetPoint" />
          </mxGeometry>
        </mxCell>
        <mxCell id="hnzndyQ2c-kpyE6tr3fe-25" value="&lt;b&gt;&amp;lt;extend&amp;gt;&lt;/b&gt;" style="text;html=1;align=center;verticalAlign=middle;resizable=0;points=[];autosize=1;strokeColor=none;fillColor=none;rotation=0;" parent="1" vertex="1">
          <mxGeometry x="600" y="901" width="80" height="30" as="geometry" />
        </mxCell>
        <mxCell id="hnzndyQ2c-kpyE6tr3fe-26" value="حفظ المخطط" style="ellipse;whiteSpace=wrap;html=1;" parent="1" vertex="1">
          <mxGeometry x="420" y="1027" width="120" height="80" as="geometry" />
        </mxCell>
        <mxCell id="hnzndyQ2c-kpyE6tr3fe-28" value="تصدير المخطط محلياً" style="ellipse;whiteSpace=wrap;html=1;" parent="1" vertex="1">
          <mxGeometry x="490" y="1167" width="120" height="80" as="geometry" />
        </mxCell>
        <mxCell id="hnzndyQ2c-kpyE6tr3fe-30" value="حفظ ضمن النظام" style="ellipse;whiteSpace=wrap;html=1;" parent="1" vertex="1">
          <mxGeometry x="360" y="1167" width="120" height="80" as="geometry" />
        </mxCell>
        <mxCell id="hnzndyQ2c-kpyE6tr3fe-31" value="&lt;b&gt;&amp;lt;extend&amp;gt;&lt;/b&gt;" style="text;html=1;align=center;verticalAlign=middle;resizable=0;points=[];autosize=1;strokeColor=none;fillColor=none;rotation=0;" parent="1" vertex="1">
          <mxGeometry x="410" y="987" width="80" height="30" as="geometry" />
        </mxCell>
        <mxCell id="hnzndyQ2c-kpyE6tr3fe-32" style="rounded=0;orthogonalLoop=1;jettySize=auto;html=1;dashed=1;exitX=0.5;exitY=0;exitDx=0;exitDy=0;entryX=0.5;entryY=1;entryDx=0;entryDy=0;" parent="1" source="hnzndyQ2c-kpyE6tr3fe-26" target="hnzndyQ2c-kpyE6tr3fe-19" edge="1">
          <mxGeometry relative="1" as="geometry">
            <mxPoint x="440" y="987" as="sourcePoint" />
            <mxPoint x="480" y="987" as="targetPoint" />
          </mxGeometry>
        </mxCell>
        <mxCell id="hnzndyQ2c-kpyE6tr3fe-33" style="rounded=0;orthogonalLoop=1;jettySize=auto;html=1;dashed=1;exitX=0.5;exitY=0;exitDx=0;exitDy=0;entryX=0.5;entryY=1;entryDx=0;entryDy=0;" parent="1" source="hnzndyQ2c-kpyE6tr3fe-35" target="hnzndyQ2c-kpyE6tr3fe-23" edge="1">
          <mxGeometry relative="1" as="geometry">
            <mxPoint x="1070" y="931" as="sourcePoint" />
            <mxPoint x="870" y="931" as="targetPoint" />
          </mxGeometry>
        </mxCell>
        <mxCell id="hnzndyQ2c-kpyE6tr3fe-34" value="&lt;b&gt;&amp;lt;extend&amp;gt;&lt;/b&gt;" style="text;html=1;align=center;verticalAlign=middle;resizable=0;points=[];autosize=1;strokeColor=none;fillColor=none;rotation=0;" parent="1" vertex="1">
          <mxGeometry x="750" y="997" width="80" height="30" as="geometry" />
        </mxCell>
        <mxCell id="hnzndyQ2c-kpyE6tr3fe-35" value="تعديل المخطط" style="ellipse;whiteSpace=wrap;html=1;" parent="1" vertex="1">
          <mxGeometry x="700" y="1050" width="120" height="80" as="geometry" />
        </mxCell>
        <mxCell id="hnzndyQ2c-kpyE6tr3fe-36" style="rounded=0;orthogonalLoop=1;jettySize=auto;html=1;dashed=1;entryX=0.995;entryY=0.627;entryDx=0;entryDy=0;exitX=0;exitY=0.5;exitDx=0;exitDy=0;entryPerimeter=0;" parent="1" source="hnzndyQ2c-kpyE6tr3fe-37" target="hnzndyQ2c-kpyE6tr3fe-19" edge="1">
          <mxGeometry relative="1" as="geometry">
            <mxPoint x="690" y="1000" as="sourcePoint" />
            <mxPoint x="550" y="941" as="targetPoint" />
          </mxGeometry>
        </mxCell>
        <mxCell id="hnzndyQ2c-kpyE6tr3fe-37" value="توليد تقرير مساعد لرسم المخطط" style="ellipse;whiteSpace=wrap;html=1;" parent="1" vertex="1">
          <mxGeometry x="710" y="1190" width="120" height="80" as="geometry" />
        </mxCell>
        <mxCell id="hnzndyQ2c-kpyE6tr3fe-38" value="&lt;b&gt;&amp;lt;extend&amp;gt;&lt;/b&gt;" style="text;html=1;align=center;verticalAlign=middle;resizable=0;points=[];autosize=1;strokeColor=none;fillColor=none;rotation=60;" parent="1" vertex="1">
          <mxGeometry x="610" y="1077" width="80" height="30" as="geometry" />
        </mxCell>
        <mxCell id="hnzndyQ2c-kpyE6tr3fe-41" value="" style="endArrow=block;html=1;rounded=0;entryX=0.417;entryY=1.005;entryDx=0;entryDy=0;entryPerimeter=0;exitX=0.5;exitY=0;exitDx=0;exitDy=0;endFill=0;" parent="1" source="hnzndyQ2c-kpyE6tr3fe-30" target="hnzndyQ2c-kpyE6tr3fe-26" edge="1">
          <mxGeometry width="50" height="50" relative="1" as="geometry">
            <mxPoint x="370" y="1150" as="sourcePoint" />
            <mxPoint x="420" y="1100" as="targetPoint" />
          </mxGeometry>
        </mxCell>
        <mxCell id="hnzndyQ2c-kpyE6tr3fe-42" value="" style="endArrow=block;html=1;rounded=0;entryX=0.608;entryY=1.001;entryDx=0;entryDy=0;entryPerimeter=0;exitX=0.5;exitY=0;exitDx=0;exitDy=0;endFill=0;" parent="1" source="hnzndyQ2c-kpyE6tr3fe-28" target="hnzndyQ2c-kpyE6tr3fe-26" edge="1">
          <mxGeometry width="50" height="50" relative="1" as="geometry">
            <mxPoint x="370" y="1177" as="sourcePoint" />
            <mxPoint x="462" y="1113" as="targetPoint" />
          </mxGeometry>
        </mxCell>
      </root>
    </mxGraphModel>
  </diagram>
</mxfile>
